<svg xmlns="http://www.w3.org/2000/svg" xmlns:xlink="http://www.w3.org/1999/xlink" aria-hidden="true" role="img" class="iconify iconify--carbon" width="32" height="32" preserveAspectRatio="xMidYMid meet" viewBox="0 0 32 32"><path d="M26 30H6a2 2 0 0 1-2-2V16a2 2 0 0 1 2-2h3v2H6v12h20V16h-3v-2h3a2 2 0 0 1 2 2v12a2 2 0 0 1-2 2z" fill="#10b981"></path><path d="M13 20h6v2h-6z" fill="#10b981"></path><path d="M20.59 8.59L17 12.17V2h-2v10.17l-3.59-3.58L10 10l6 6l6-6l-1.41-1.41z" fill="#10b981"></path></svg>